<?xml version="1.0" encoding="UTF-8" standalone="no"?>
<svg width="32px" height="32px" viewBox="0 0 32 32" version="1.1" xmlns="http://www.w3.org/2000/svg" xmlns:xlink="http://www.w3.org/1999/xlink" xmlns:sketch="http://www.bohemiancoding.com/sketch/ns">
    <!-- Generator: Sketch 3.3.3 (12072) - http://www.bohemiancoding.com/sketch -->
    <title>callout</title>
    <desc>Created with Sketch.</desc>
    <defs></defs>
    <g id="icons" stroke="none" stroke-width="1" fill="none" fill-rule="evenodd" sketch:type="MSPage">
        <g id="callout" sketch:type="MSArtboardGroup" fill="#C9CDCF">
            <g id="Form_Callout" sketch:type="MSLayerGroup" transform="translate(3.000000, 5.000000)">
                <path d="M20,7 L7,7 L7,5 L20,5 L20,7 L20,7 Z M27,0 L27,22 L0,22 L0,0 L27,0 L27,0 Z M25,2 L2,2 L2,20 L25,20 L25,2 L25,2 Z M10,16 L17,16 L17,14 L10,14 L10,16 L10,16 Z M22,9 L5,9 L5,11 L22,11 L22,9 L22,9 Z" id="Shape" sketch:type="MSShapeGroup"></path>
            </g>
        </g>
    </g>
</svg>